subject_07
version=1
nRows=218
nColumns=3
inDegrees=yes
endheader
time	r_shoulder_elev	r_elbow_flex
0.0000	17.928737	16.313797
0.0100	17.928737	16.314000
0.0200	17.928737	16.316210
0.0300	17.928737	16.322059
0.0400	17.928737	16.332975
0.0500	17.928737	16.350293
0.0600	17.928737	16.375351
0.0700	17.928737	16.409559
0.0800	17.928737	16.454383
0.0900	17.928737	16.511292
0.1000	17.928737	16.581685
0.1100	17.928737	16.666847
0.1200	17.928737	16.767931
0.1300	17.928737	16.885973
0.1400	17.928737	17.021894
0.1500	17.928737	17.176492
0.1600	17.928737	17.350428
0.1700	17.928737	17.544237
0.1800	17.928737	17.758378
0.1900	17.928737	17.993345
0.2000	17.928737	18.249779
0.2100	17.928737	18.528540
0.2200	17.928737	18.830666
0.2300	17.928737	19.157220
0.2400	17.928737	19.509055
0.2500	17.928737	19.886613
0.2600	17.928737	20.289840
0.2700	17.928737	20.718298
0.2800	17.928737	21.171428
0.2900	17.928737	21.648886
0.3000	17.928737	22.150771
0.3100	17.928737	22.677659
0.3200	17.928737	23.230392
0.3300	17.928737	23.809720
0.3400	17.928737	24.415952
0.3500	17.928737	25.048802
0.3600	17.928737	25.707506
0.3700	17.928737	26.391173
0.3800	17.928737	27.099201
0.3900	17.928737	27.831546
0.4000	17.928737	28.588681
0.4100	17.928737	29.371247
0.4200	17.928737	30.179528
0.4300	17.928737	31.013028
0.4400	17.928737	31.870378
0.4500	17.928737	32.749675
0.4600	17.928737	33.649140
0.4700	17.928737	34.567820
0.4800	17.928737	35.505983
0.4900	17.928737	36.464979
0.5000	17.928737	37.446556
0.5100	17.928737	38.451886
0.5200	17.928737	39.480723
0.5300	17.928737	40.531080
0.5400	17.928737	41.599627
0.5500	17.928737	42.682701
0.5600	17.928737	43.777524
0.5700	17.928737	44.883120
0.5800	17.928737	46.000520
0.5900	17.928737	47.132124
0.6000	17.928737	48.280475
0.6100	17.928737	49.446925
0.6200	17.928737	50.630782
0.6300	17.928737	51.829279
0.6400	17.928737	53.038398
0.6500	17.928737	54.254185
0.6600	17.928737	55.474000
0.6700	17.928737	56.697176
0.6800	17.928737	57.924817
0.6900	17.928737	59.158866
0.7000	17.928737	60.400872
0.7100	17.928737	61.651009
0.7200	17.928737	62.907773
0.7300	17.928737	64.168439
0.7400	17.928737	65.430035
0.7500	17.928737	66.690336
0.7600	17.928737	67.948420
0.7700	17.928737	69.204531
0.7800	17.928737	70.459363
0.7900	17.928737	71.713152
0.8000	17.928737	72.965037
0.8100	17.928737	74.213044
0.8200	17.928737	75.454680
0.8300	17.928737	76.687858
0.8400	17.928737	77.911647
0.8500	17.928737	79.126462
0.8600	17.928737	80.333535
0.8700	17.928737	81.533903
0.8800	17.928737	82.727398
0.8900	17.928737	83.912151
0.9000	17.928737	85.084911
0.9100	17.928737	86.242080
0.9200	17.928737	87.381031
0.9300	17.928737	88.501077
0.9400	17.928737	89.603622
0.9500	17.928737	90.691336
0.9600	17.928737	91.766705
0.9700	17.928737	92.830554
0.9800	17.928737	93.881244
0.9900	17.928737	94.914939
1.0000	17.928737	95.926874
1.0100	17.928737	96.913124
1.0200	17.928737	97.872092
1.0300	17.928737	98.805063
1.0400	17.928737	99.715541
1.0500	17.928737	100.607626
1.0600	17.928737	101.484092
1.0700	17.928737	102.344994
1.0800	17.928737	103.187396
1.0900	17.928737	104.006347
1.1000	17.928737	104.796715
1.1100	17.928737	105.555096
1.1200	17.928737	106.281045
1.1300	17.928737	106.977096
1.1400	17.928737	107.647625
1.1500	17.928737	108.297018
1.1600	17.928737	108.927918
1.1700	17.928737	109.540242
1.1800	17.928737	110.131319
1.1900	17.928737	110.697029
1.2000	17.928737	111.233431
1.2100	17.928737	111.738210
1.2200	17.928737	112.211390
1.2300	17.928737	112.655119
1.2400	17.928737	113.072696
1.2500	17.928737	113.467307
1.2600	17.928737	113.840995
1.2700	17.928737	114.194226
1.2800	17.928737	114.526130
1.2900	17.928737	114.835212
1.3000	17.928737	115.120178
1.3100	17.928737	115.380533
1.3200	17.928737	115.616752
1.3300	17.928737	115.830054
1.3400	17.928737	116.021967
1.3500	17.928737	116.193894
1.3600	17.928737	116.346893
1.3700	17.928737	116.481702
1.3800	17.928737	116.598946
1.3900	17.928737	116.699394
1.4000	17.928737	116.784128
1.4100	17.928737	116.854569
1.4200	17.928737	116.912355
1.4300	17.928737	116.959142
1.4400	17.928737	116.996413
1.4500	17.928737	117.025342
1.4600	17.928737	117.046775
1.4700	17.928737	117.061316
1.4800	17.928737	117.069538
1.4900	17.928737	117.072270
1.5000	17.928737	117.070905
1.5100	17.928737	117.067306
1.5200	17.928737	117.062946
1.5300	17.928737	117.059556
1.5400	17.928737	117.058892
1.5500	17.928737	117.062072
1.5600	17.928737	117.069023
1.5700	17.928737	117.078274
1.5800	17.928737	117.087287
1.5900	17.928737	117.093291
1.6000	17.928737	117.094360
1.6100	17.928737	117.090304
1.6200	17.928737	117.082955
1.6300	17.928737	117.075633
1.6400	17.928737	117.071903
1.6500	17.928737	117.074089
1.6600	17.928737	117.082173
1.6700	17.928737	117.093605
1.6800	17.928737	117.104227
1.6900	17.928737	117.109993
1.7000	17.928737	117.108796
1.7100	17.928737	117.101320
1.7200	17.928737	117.090086
1.7300	17.928737	117.078785
1.7400	17.928737	117.070267
1.7500	17.928737	117.064455
1.7600	17.928737	117.057427
1.7700	17.928737	117.042183
1.7800	17.928737	117.010905
1.7900	17.928737	116.957848
1.8000	17.928737	116.881600
1.8100	17.928737	116.785673
1.8200	17.928737	116.677005
1.8300	17.928737	116.562876
1.8400	17.928737	116.447434
1.8500	17.928737	116.329309
1.8600	17.928737	116.201384
1.8700	17.928737	116.052966
1.8800	17.928737	115.873569
1.8900	17.928737	115.656822
1.9000	17.928737	115.402906
1.9100	17.928737	115.118491
1.9200	17.928737	114.814122
1.9300	17.928737	114.500081
1.9400	17.928737	114.182334
1.9500	17.928737	113.860167
1.9600	17.928737	113.526405
1.9700	17.928737	113.170079
1.9800	17.928737	112.780424
1.9900	17.928737	112.350630
2.0000	17.928737	111.879936
2.0100	17.928737	111.373380
2.0200	17.928737	110.839499
2.0300	17.928737	110.287035
2.0400	17.928737	109.721966
2.0500	17.928737	109.145939
2.0600	17.928737	108.556453
2.0700	17.928737	107.948444
2.0800	17.928737	107.316394
2.0900	17.928737	106.656080
2.1000	17.928737	105.965400
2.1100	17.928737	105.244256
2.1200	17.928737	104.493899
2.1300	17.928737	103.716262
2.1400	17.928737	102.913649
2.1500	17.928737	102.088758
2.1600	17.928737	101.244722
2.1700	17.928737	100.384825
